<svg enable-background="new 0 0 530 27.6" viewBox="0 0 530 27.6" xmlns="http://www.w3.org/2000/svg"><path d="m-433 3.1h13.3v-4.6h-1.3c-.4 0-1-.7-1-1.1v-14.5c0-.4.6-1.1 1-1.1h1.3v-4.8h-13.3v4.8h1.2c.5 0 1.1.7 1.1 1.1v14.5c0 .4-.6 1.1-1.1 1.1h-1.2zm14.2 0h12.1v-4.6h-2.2v-9.2c.6-.1 1.1-.1 1.5-.1 1.6 0 2.4.3 2.4 1.7v12.1h9.6v-4.6h-.6c-.4 0-1-.6-1-1v-9.7c0-3.6-2.5-4.7-5.1-4.7-3.1 0-5.3 1.3-7.1 3.1-.2-2.1-.7-2.7-1.4-2.7h-8.5v4.9h1.1c.4 0 1 .6 1 1v8.3c0 .3-.6 1-1 1h-1c.2 0 .2 4.5.2 4.5zm23.6-14.6h1.9v9.4c0 4.6 2.9 5.7 7.2 5.7 1.8 0 3.3-.3 4.3-.6v-4.4h-1c-1.8 0-2.3-.5-2.3-2.2v-7.9h3.2v-4.9h-3.2v-5.1h-8.1v5.1h-1.9zm34.3 6.6c0-.3.1-1 .1-1.9 0-6.9-3.2-9.9-9.7-9.9-6.6 0-10.6 4-10.6 10.2s3.1 10 10.7 10c4.5 0 7.1-.8 8.9-1.8v-4.7h-4.3c-.8 1-1.7 1.6-3.7 1.6-2.2 0-3.2-1.1-3.4-3.5-.1 0 12 0 12 0zm-9.6-7.3c1.4 0 2 1 2.2 3.4h-4.7c.4-2.4 1-3.4 2.5-3.4zm10.8 15.3h11.9v-4.6h-2v-8.3c1.1-.3 2.8-.6 5.3-.6h.9v-6c-.6-.2-.9-.2-1.1-.2-2.5 0-3.8 1.2-5.1 2.9-.2-2.1-.7-2.7-1.4-2.7h-8.5v4.9h1.1c.4 0 1 .6 1 1v8.3c0 .4-.6 1-1 1h-1zm17.2 0h12.1v-4.6h-2.2v-9.2c.6-.1 1.1-.1 1.5-.1 1.6 0 2.4.3 2.4 1.7v12.1h9.6v-4.6h-.6c-.4 0-1-.6-1-1v-9.7c0-3.6-2.5-4.7-5.1-4.7-3.1 0-5.3 1.3-7 3.1-.2-2.1-.7-2.7-1.4-2.7h-8.5v4.9h1.1c.4 0 1 .6 1 1v8.3c0 .3-.6 1-1 1h-1c.1 0 .1 4.5.1 4.5zm30.4.3c2.4 0 4.2-.7 5.6-2.3.7 1.4 1.9 2.3 4.4 2.3 1.9 0 3.4-.4 4.6-1.1v-3.8h-.7c-.4 0-.9-.6-.9-1v-7.8c0-4.6-2.7-6.6-8.8-6.6-4 0-7.1.7-9.2 1.3v5.5h3.3c.8-.7 1.8-1.3 3.8-1.3 1.9 0 2.7.7 2.7 2v1.1c-1.1-.2-2.1-.3-3.5-.3-4.6 0-7.5 1.8-7.5 6.1.1 4.1 2.9 5.9 6.2 5.9zm3.3-4.6c-1 0-1.8-.4-1.8-1.8s.7-1.9 2-1.9c.5 0 1.1.1 1.5.2v3c-.5.3-1 .5-1.7.5zm11.6-10.3h1.9v9.4c0 4.6 2.9 5.7 7.2 5.7 1.8 0 3.3-.3 4.3-.6v-4.4h-1.1c-1.8 0-2.3-.5-2.3-2.2v-7.9h3.2v-4.9h-3.2v-5.1h-8.1v5.1h-1.9zm14.3 14.6h11.8v-4.6h-1c-.4 0-1-.6-1-1v-12.1c0-1.2-.4-1.9-1.1-1.9h-8.9v4.9h1.1c.4 0 .9.6.9 1v8.3c0 .4-.5 1-.9 1h-1v4.4zm5.8-20.2c2.2 0 3.7-1.3 3.7-3.4s-1.5-3.5-3.7-3.5-3.7 1.4-3.7 3.5c0 1.9 1.6 3.4 3.7 3.4zm17.6 20.6c6.4 0 11-3.7 11-10 0-6.2-4.6-10.2-11-10.2s-11 4-11 10.2c.1 6.2 4.7 10 11 10zm0-4.9c-1.7 0-2.8-1.6-2.8-5.2s1.1-5.1 2.8-5.1 2.8 1.5 2.8 5.1c.1 3.7-1.1 5.2-2.8 5.2zm11.8 4.5h12.1v-4.6h-2.2v-9.2c.6-.1 1.1-.1 1.5-.1 1.6 0 2.4.3 2.4 1.7v12.1h9.6v-4.6h-.6c-.4 0-1-.6-1-1v-9.7c0-3.6-2.5-4.7-5.1-4.7-3.1 0-5.3 1.3-7.1 3.1-.2-2.1-.7-2.7-1.4-2.7h-8.5v4.9h1.1c.4 0 1 .6 1 1v8.3c0 .3-.6 1-1 1h-1c.2 0 .2 4.5.2 4.5zm30.4.3c2.4 0 4.2-.7 5.6-2.3.7 1.4 1.9 2.3 4.4 2.3 1.9 0 3.4-.4 4.6-1.1v-3.8h-.7c-.4 0-.9-.6-.9-1v-7.8c0-4.6-2.7-6.6-8.8-6.6-4 0-7.1.7-9.2 1.3v5.5h3.3c.8-.7 1.8-1.3 3.8-1.3 1.9 0 2.7.7 2.7 2v1.1c-1.1-.2-2.1-.3-3.5-.3-4.6 0-7.5 1.8-7.5 6.1.2 4.1 3 5.9 6.2 5.9zm3.4-4.6c-1.1 0-1.8-.4-1.8-1.8s.7-1.9 2-1.9c.5 0 1.1.1 1.5.2v3c-.6.3-1.1.5-1.7.5zm12.2 4.3h12v-4.6h-1.1c-.4 0-.9-.6-.9-1v-18.8c0-1-.5-1.6-1.1-1.6h-9v4.8h1.1c.4 0 .9.6.9 1v14.7c0 .4-.5 1-.9 1h-1.1v4.5c0 0 .1 0 .1 0zm18.7 0h12.6c7 0 11.3-2.5 11.3-7.5 0-3.5-2.1-5.4-5.9-6v-.2c3.2-.8 5.2-2.3 5.2-5.5 0-4.5-3.7-6.7-10.6-6.7h-12.5v4.7h1.1c.5 0 1.1.7 1.1 1.1v14.5c0 .4-.6 1.1-1.1 1.1h-1.1v4.5zm10.6-4.7v-6.2h1.4c2.3 0 3.2 1 3.2 3.1s-.9 3.2-3.2 3.2h-1.4zm0-16.3h1.3c2.1 0 2.9 1 2.9 2.8s-.9 2.8-2.9 2.8h-1.3zm20.7 21.4c3.2 0 5.2-1.2 6.9-3 .2 2.1.8 2.7 1.4 2.7h8.3v-4.6h-.9c-.4 0-.9-.6-.9-1v-14h-10v4.9h1.9v9c-.6.1-1.1.2-1.4.2-1.6 0-2.4-.3-2.4-1.8v-12.1h-9.7v4.9h.8c.3 0 .9.6.9 1v9.3c-.1 3.5 2.5 4.5 5.1 4.5zm25.7 0c6.5 0 9.3-2.5 9.3-7 0-4.6-2.5-5.7-7.4-6.3-2.3-.3-3-.5-3-1.1 0-.7.6-1.1 2.2-1.1 1.5 0 2.5.5 3.2 1.3h4.2v-5.1c-1.9-.6-4.1-1-7.6-1-5.4 0-9 2.1-9 6.6 0 4.4 2.5 5.9 6.7 6.4 2.5.3 3.2.5 3.2 1.3 0 .9-.9 1.1-2.2 1.1-1.4 0-2.8-.7-3.4-1.7h-4.3v5.4c1.7.6 4.1 1.2 8.1 1.2zm10.4-.4h11.8v-4.6h-1c-.4 0-1-.6-1-1v-12.1c0-1.2-.4-1.9-1.1-1.9h-8.9v4.9h1.1c.4 0 .9.6.9 1v8.3c0 .4-.5 1-.9 1h-1zm5.8-20.2c2.2 0 3.8-1.3 3.8-3.4s-1.5-3.5-3.8-3.5c-2.2 0-3.7 1.4-3.7 3.5 0 1.9 1.6 3.4 3.7 3.4zm7 20.2h12v-4.6h-2.2v-9.2c.6-.1 1.1-.1 1.5-.1 1.6 0 2.4.3 2.4 1.7v12.1h9.6v-4.6h-.6c-.4 0-1-.6-1-1v-9.7c0-3.6-2.5-4.7-5.1-4.7-3.1 0-5.3 1.3-7.1 3.1-.2-2.1-.7-2.7-1.4-2.7h-8.5v4.9h1.1c.4 0 1 .6 1 1v8.3c0 .3-.6 1-1 1h-1c.3 0 .3 4.5.3 4.5zm44.2-8c0-.3.1-1 .1-1.9 0-6.9-3.1-9.9-9.7-9.9s-10.6 4-10.6 10.2 3.1 10 10.7 10c4.5 0 7.1-.8 8.8-1.8v-4.7h-4.3c-.8 1-1.7 1.6-3.7 1.6-2.2 0-3.2-1.1-3.4-3.5zm-9.6-7.3c1.4 0 2 1 2.2 3.4h-4.7c.3-2.4 1-3.4 2.5-3.4zm18.9 15.7c6.5 0 9.3-2.5 9.3-7 0-4.6-2.5-5.7-7.4-6.3-2.3-.3-2.9-.5-2.9-1.1 0-.7.6-1.1 2.2-1.1 1.5 0 2.5.5 3.1 1.3h4.2v-5.1c-1.9-.6-4.1-1-7.6-1-5.4 0-9 2.1-9 6.6 0 4.4 2.5 5.9 6.7 6.4 2.5.3 3.2.5 3.2 1.3 0 .9-.9 1.1-2.2 1.1-1.4 0-2.9-.7-3.4-1.7h-4.3v5.4c1.7.6 4.1 1.2 8.1 1.2zm18.3 0c6.5 0 9.3-2.5 9.3-7 0-4.6-2.5-5.7-7.4-6.3-2.3-.3-3-.5-3-1.1 0-.7.6-1.1 2.2-1.1 1.5 0 2.5.5 3.2 1.3h4.2v-5.1c-1.9-.6-4.1-1-7.6-1-5.4 0-9 2.1-9 6.6 0 4.4 2.5 5.9 6.7 6.4 2.5.3 3.2.5 3.2 1.3 0 .9-.9 1.1-2.2 1.1-1.4 0-2.8-.7-3.4-1.7h-4.3v5.4c1.8.6 4.2 1.2 8.1 1.2zm21.6-.4h13.2v-4.6h-1.2c-.5 0-1.1-.7-1.1-1.1v-15.3h2.1l.6 4.8h5.2v-9.7h-24.2v9.7h5.2l.6-4.8h2.1v15.3c0 .4-.6 1.1-1.1 1.1h-1.2zm19.8 0h11.8v-4.6h-1c-.4 0-1-.6-1-1v-12.1c0-1.2-.4-1.9-1.1-1.9h-8.9v4.9h1.1c.4 0 .9.6.9 1v8.3c0 .4-.5 1-.9 1h-1c.1-.1.1 4.4.1 4.4zm5.9-20.2c2.2 0 3.8-1.3 3.8-3.4s-1.5-3.5-3.8-3.5c-2.2 0-3.7 1.4-3.7 3.5 0 1.9 1.5 3.4 3.7 3.4zm6.9 20.2h11.7v-4.6h-1.7v-9.2c.6-.1 1.1-.1 1.4-.1 1.7 0 2 .3 2 1.7v12.1h9.7v-4.6h-1.7v-9.2c.6-.1 1.1-.1 1.4-.1 1.7 0 1.9.3 1.9 1.7v12.1h9.6v-4.6h-.6c-.4 0-1-.6-1-1v-9.7c0-3.6-2.4-4.7-5-4.7-3.2 0-5.1 1.5-6.6 3.2-.6-2.5-2.7-3.2-4.9-3.2-3.1 0-5.1 1.5-6.6 3.2-.2-2.3-.7-2.9-1.4-2.9h-8.5v4.9h1.1c.4 0 1 .6 1 1v8.3c0 .3-.6 1-1 1h-1v4.7c0 0 .2 0 .2 0zm55.2-8c0-.3.1-1 .1-1.9 0-6.9-3.1-9.9-9.7-9.9-6.5 0-10.6 4-10.6 10.2s3.1 10 10.7 10c4.5 0 7.1-.8 8.8-1.8v-4.7h-4.3c-.8 1-1.7 1.6-3.7 1.6-2.2 0-3.2-1.1-3.4-3.5zm-9.7-7.3c1.4 0 2 1 2.2 3.4h-4.7c.3-2.4 1.1-3.4 2.5-3.4zm19 15.7c6.5 0 9.3-2.5 9.3-7 0-4.6-2.5-5.7-7.4-6.3-2.3-.3-2.9-.5-2.9-1.1 0-.7.6-1.1 2.2-1.1 1.5 0 2.5.5 3.1 1.3h4.2v-5.1c-1.9-.6-4.1-1-7.6-1-5.4 0-9 2.1-9 6.6 0 4.4 2.5 5.9 6.7 6.4 2.5.3 3.2.5 3.2 1.3 0 .9-.9 1.1-2.2 1.1-1.4 0-2.9-.7-3.4-1.7h-4.3v5.4c1.7.6 4.1 1.2 8.1 1.2z" fill="#221f1f" transform="translate(433 24)"/></svg>